<svg width="243" height="76" viewBox="0 0 243 76" fill="none" xmlns="http://www.w3.org/2000/svg">
<path d="M233.54 1.67433C213.205 -0.555984 201.891 -0.560236 181.899 1.67433C181.087 30.3731 179.638 49.5959 181.128 71.0426H189.221C188.971 61.1935 189.103 51.4879 189.221 35.9731C203.087 37.1283 210.156 37.4209 224.291 37.1292L225.832 29.4216C209.95 29.1022 200.915 28.8272 189.221 27.8801C189.085 21.7988 189.065 17.8531 189.221 8.99654C214.108 8.19706 223.947 8.14358 231.613 8.99654C232.363 6.36349 232.785 4.83158 233.54 1.67433Z" fill="black"/>
<path d="M13.8736 14.0066C10.4051 14.5843 6.16607 16.7044 6.16607 16.7044C6.16607 16.7044 3.18337 15.1258 1.9268 14.0066C0.711246 12.9239 0 11.3091 0 11.3091C0 11.3091 5.00984 7.57256 12.332 6.29891C19.6542 5.02525 72.0658 3.60125 77.8466 5.91378L74.3782 12.4652H59.3483C52.4115 12.4652 45.86 12.8504 45.86 12.8504C44.886 39.9634 46.8387 53.7801 47.787 75.2821C44.3677 75.015 42.7465 74.6883 40.4648 73.7406C38.3153 48.4054 37.7522 35.1579 38.1525 13.6214C38.1525 13.6214 17.342 13.4288 13.8736 14.0066Z" fill="black"/>
<path d="M108.585 4.836C102.376 5.47604 99.9521 9.63174 96.2524 14.0851C95.4863 10.5272 94.0635 5.74534 90.0779 4.57548C84.7758 3.01925 83.9465 10.7963 85.4526 14.0845C90.0686 24.1612 101.418 23.7143 107.047 14.8445C109.113 11.5888 108.842 8.4887 108.585 4.836Z" fill="#FF7630"/>
<path d="M100.969 29.4216H93.2616C90.771 46.2876 92.748 56.5779 94.8032 75.6671C98.4352 75.8624 100.436 75.9013 103.282 74.511C100.382 58.7583 99.9276 48.8383 100.969 29.4216Z" fill="black"/>
<path d="M170.723 2.05969L167.64 8.61114C159.706 7.80752 155.43 8.12284 148.178 10.3453C142.995 11.8069 138.581 12.1371 128.716 12.0796C130.11 23.4803 130.354 27.9006 130.258 34.0462C139.905 31.696 150.298 32.5047 165.713 29.807L166.484 36.7438C146.614 40.5776 140.562 41.0561 131.414 41.3684C132.834 55.8502 133.469 63.5605 133.341 74.1256H125.248C125.371 64.7158 122.88 46.2981 122.222 41.7044C122.205 41.6226 122.186 41.5111 122.165 41.3684C122.003 40.2437 122.049 40.4948 122.222 41.7044C122.86 44.7168 121.328 7.53905 120.624 6.29887C129.432 1.97109 137.287 4.8884 144.132 3.21583C150.976 1.54326 170.559 -0.339702 170.723 2.05969Z" fill="black"/>
<path d="M239.705 62.1789V59.0958C236.378 59.1259 233.235 59.2592 231.145 62.2629C228.578 65.951 229.256 72.087 234.314 72.8546C237.745 73.3757 240.441 72.2018 242.068 69.101C243.582 66.2146 243.55 62.1118 239.705 62.1789Z" fill="#FF7630"/>
</svg>
